<?xml version="1.0" standalone="no"?>
<!DOCTYPE svg PUBLIC "-//W3C//DTD SVG 20010904//EN"
 "http://www.w3.org/TR/2001/REC-SVG-20010904/DTD/svg10.dtd">
<svg version="1.0" xmlns="http://www.w3.org/2000/svg"
 width="512.000000pt" height="512.000000pt" viewBox="0 0 512.000000 512.000000"
 preserveAspectRatio="xMidYMid meet">
<metadata>
Created by potrace 1.11, written by Peter Selinger 2001-2013
</metadata>
<g transform="translate(0.000000,512.000000) scale(0.100000,-0.100000)"
fill="#000000" stroke="none">
<path d="M2480 4839 c-73 -14 -161 -64 -222 -125 -173 -173 -181 -442 -19
-626 45 -50 132 -108 194 -128 21 -6 45 -22 53 -35 23 -35 1 -99 -45 -132 -20
-15 -49 -41 -66 -58 -24 -26 -48 -37 -120 -55 -473 -120 -877 -599 -960 -1140
-8 -48 -29 -80 -53 -80 -22 0 -71 -39 -87 -70 -35 -67 -5 -157 63 -191 64 -33
62 -26 62 -214 0 -200 0 -199 -93 -208 -34 -3 -74 -15 -97 -29 -50 -29 -253
-228 -288 -281 l-27 -41 -3 -538 c-3 -533 -2 -538 19 -588 29 -67 104 -135
172 -155 44 -13 247 -15 1598 -15 1721 0 1605 -5 1689 68 23 19 53 57 68 86
l27 51 3 514 c2 450 1 520 -14 570 -14 51 -28 68 -147 187 -73 72 -146 139
-164 148 -17 8 -58 19 -90 22 -94 11 -93 9 -93 209 0 188 -2 181 62 214 88 44
104 169 32 232 -11 9 -36 22 -57 29 -24 7 -39 19 -42 33 -3 12 -14 65 -25 117
-24 111 -53 193 -126 347 -165 351 -440 601 -783 712 -77 25 -100 37 -124 66
-16 20 -41 42 -57 50 -18 10 -34 31 -46 61 -24 64 -13 93 46 113 78 28 133 62
185 115 53 55 94 120 82 132 -4 4 -37 -8 -74 -27 -59 -30 -76 -34 -142 -34
-95 1 -167 33 -235 105 -62 66 -87 127 -93 220 -6 94 21 173 81 238 40 44 123
92 159 92 31 0 15 34 -18 41 -43 9 -132 8 -185 -2z m-830 -2539 c11 -6 32 -32
47 -58 28 -46 28 -50 31 -233 4 -185 3 -187 -19 -203 -28 -20 -127 -22 -153
-3 -15 11 -17 34 -18 192 -2 197 5 231 59 288 31 31 28 30 53 17z m946 -11
c19 -11 47 -42 62 -67 27 -46 27 -49 27 -224 0 -214 4 -207 -125 -208 -133 0
-130 -4 -130 194 0 173 7 209 48 264 21 27 63 60 81 62 2 0 19 -9 37 -21z
m483 5 c13 -9 36 -37 52 -62 l29 -46 0 -182 c0 -178 -1 -183 -22 -198 -34 -24
-149 -22 -179 3 -24 19 -24 21 -21 196 3 197 11 227 72 279 37 31 39 31 69 10z
m477 -57 c22 -49 24 -63 24 -234 0 -177 -1 -182 -22 -197 -30 -21 -91 -20
-118 2 -21 17 -22 25 -23 198 -2 191 6 229 55 281 29 30 53 16 84 -50z m-1444
36 c59 -64 72 -133 62 -329 -5 -88 -11 -130 -21 -140 -21 -20 -151 -19 -181 2
-21 15 -22 21 -22 190 0 188 5 213 54 272 35 41 72 43 108 5z m-565 -763 c78
-39 171 -125 208 -191 l30 -54 3 -350 3 -351 -26 -24 -27 -25 -270 0 -270 0
-24 29 -25 28 3 347 3 346 28 52 c15 29 51 77 81 107 55 54 161 116 201 116
12 0 49 -13 82 -30z m1119 -5 c109 -48 207 -134 249 -219 l25 -50 0 -337 0
-337 -31 -26 -31 -26 -314 0 c-356 0 -365 2 -384 68 -8 25 -10 139 -8 347 3
306 3 311 28 360 62 127 273 266 379 249 18 -3 58 -16 87 -29z m1020 18 c103
-34 214 -136 260 -238 16 -35 19 -78 22 -361 4 -370 2 -384 -65 -404 -25 -8
-122 -10 -286 -8 -248 3 -249 3 -268 27 -18 22 -19 43 -19 360 0 376 4 404 64
483 39 50 124 111 195 139 25 10 46 18 47 19 0 0 23 -7 50 -17z"/>
</g>
</svg>
